<svg xmlns="http://www.w3.org/2000/svg" xmlns:xlink="http://www.w3.org/1999/xlink" width="130" zoomAndPan="magnify" viewBox="0 0 97.5 30.000001" height="40" preserveAspectRatio="xMidYMid meet" version="1.2"><defs><clipPath id="0b8fb16cf1"><path d="M 1.332031 0 L 95.683594 0 L 95.683594 29.03125 L 1.332031 29.03125 Z M 1.332031 0 "/></clipPath><clipPath id="70699900f8"><path d="M 88 13 L 95.683594 13 L 95.683594 19 L 88 19 Z M 88 13 "/></clipPath></defs><g id="8cc9c52ff8"><g clip-rule="nonzero" clip-path="url(#0b8fb16cf1)"><path style=" stroke:none;fill-rule:nonzero;fill:#ffffff;fill-opacity:1;" d="M 1.332031 0 L 95.683594 0 L 95.683594 29.03125 L 1.332031 29.03125 Z M 1.332031 0 "/><path style=" stroke:none;fill-rule:nonzero;fill:#ffffff;fill-opacity:1;" d="M 1.332031 0 L 95.683594 0 L 95.683594 29.03125 L 1.332031 29.03125 Z M 1.332031 0 "/></g><g style="fill:#000000;fill-opacity:1;"><g transform="translate(2.748234, 18.145164)"><path style="stroke:none" d="M 19.40625 -17.359375 C 19.425781 -17.273438 19.414062 -17.195312 19.375 -17.125 C 19.34375 -17.0625 19.296875 -17.015625 19.234375 -16.984375 C 18.703125 -16.804688 18.046875 -16.597656 17.265625 -16.359375 C 16.484375 -16.128906 15.628906 -15.875 14.703125 -15.59375 C 13.773438 -15.320312 12.789062 -15.023438 11.75 -14.703125 C 10.71875 -14.390625 9.691406 -14.070312 8.671875 -13.75 C 8.503906 -13.101562 8.316406 -12.328125 8.109375 -11.421875 C 7.898438 -10.515625 7.675781 -9.523438 7.4375 -8.453125 C 7.195312 -7.390625 6.945312 -6.28125 6.6875 -5.125 C 6.4375 -4 6.179688 -2.863281 5.921875 -1.71875 C 5.671875 -0.582031 5.425781 0.507812 5.1875 1.5625 C 4.945312 2.625 4.71875 3.609375 4.5 4.515625 C 4.144531 5.972656 3.859375 7.070312 3.640625 7.8125 C 3.484375 8.382812 3.351562 8.769531 3.25 8.96875 C 3.144531 9.164062 3.019531 9.265625 2.875 9.265625 C 2.851562 9.265625 2.832031 9.265625 2.8125 9.265625 C 2.707031 9.242188 2.625 9.175781 2.5625 9.0625 C 2.507812 8.945312 2.484375 8.726562 2.484375 8.40625 C 2.484375 8.09375 2.515625 7.609375 2.578125 6.953125 C 2.585938 6.878906 2.625 6.816406 2.6875 6.765625 C 2.75 6.710938 2.816406 6.691406 2.890625 6.703125 C 2.972656 6.710938 3.039062 6.75 3.09375 6.8125 C 3.144531 6.875 3.164062 6.941406 3.15625 7.015625 C 3.132812 7.234375 3.117188 7.4375 3.109375 7.625 C 3.242188 7.132812 3.40625 6.519531 3.59375 5.78125 C 3.78125 5.050781 3.976562 4.238281 4.1875 3.34375 C 4.394531 2.445312 4.609375 1.507812 4.828125 0.53125 C 5.054688 -0.445312 5.28125 -1.429688 5.5 -2.421875 C 5.71875 -3.410156 5.929688 -4.359375 6.140625 -5.265625 C 6.378906 -6.347656 6.609375 -7.394531 6.828125 -8.40625 C 7.054688 -9.425781 7.269531 -10.375 7.46875 -11.25 C 7.675781 -12.125 7.863281 -12.890625 8.03125 -13.546875 C 7.59375 -13.410156 7.171875 -13.273438 6.765625 -13.140625 C 6.359375 -13.015625 5.960938 -12.890625 5.578125 -12.765625 C 4.453125 -12.378906 3.550781 -12.0625 2.875 -11.8125 C 2.195312 -11.5625 1.691406 -11.359375 1.359375 -11.203125 C 1.023438 -11.054688 0.789062 -10.9375 0.65625 -10.84375 C 0.757812 -10.769531 0.800781 -10.675781 0.78125 -10.5625 C 0.75 -10.394531 0.65625 -10.3125 0.5 -10.3125 C 0.476562 -10.3125 0.457031 -10.316406 0.4375 -10.328125 C 0.238281 -10.367188 0.101562 -10.429688 0.03125 -10.515625 C -0.03125 -10.609375 -0.0664062 -10.691406 -0.078125 -10.765625 C -0.078125 -10.867188 -0.0390625 -10.96875 0.03125 -11.0625 C 0.113281 -11.164062 0.265625 -11.28125 0.484375 -11.40625 C 0.710938 -11.539062 1.050781 -11.703125 1.5 -11.890625 C 2.320312 -12.242188 3.507812 -12.679688 5.0625 -13.203125 C 6.019531 -13.523438 7.039062 -13.851562 8.125 -14.1875 C 9.21875 -14.53125 10.3125 -14.867188 11.40625 -15.203125 C 12.507812 -15.535156 13.550781 -15.851562 14.53125 -16.15625 C 15.46875 -16.4375 16.320312 -16.691406 17.09375 -16.921875 C 17.863281 -17.160156 18.515625 -17.363281 19.046875 -17.53125 C 19.117188 -17.550781 19.191406 -17.539062 19.265625 -17.5 C 19.335938 -17.46875 19.382812 -17.421875 19.40625 -17.359375 Z M 19.40625 -17.359375 "/></g></g><g style="fill:#000000;fill-opacity:1;"><g transform="translate(10.379336, 18.145164)"><path style="stroke:none" d="M 7.109375 -3.4375 C 7.171875 -3.394531 7.210938 -3.332031 7.234375 -3.25 C 7.253906 -3.175781 7.242188 -3.101562 7.203125 -3.03125 C 6.722656 -2.257812 6.296875 -1.632812 5.921875 -1.15625 C 5.554688 -0.675781 5.238281 -0.3125 4.96875 -0.0625 C 4.707031 0.1875 4.484375 0.351562 4.296875 0.4375 C 4.117188 0.53125 3.972656 0.578125 3.859375 0.578125 C 3.753906 0.578125 3.671875 0.570312 3.609375 0.5625 C 3.378906 0.507812 3.207031 0.375 3.09375 0.15625 C 2.988281 -0.0625 2.914062 -0.285156 2.875 -0.515625 C 2.84375 -0.742188 2.820312 -0.914062 2.8125 -1.03125 C 2.800781 -1.382812 2.765625 -1.617188 2.703125 -1.734375 C 2.640625 -1.859375 2.59375 -1.921875 2.5625 -1.921875 C 2.550781 -1.921875 2.546875 -1.921875 2.546875 -1.921875 C 2.421875 -1.921875 2.207031 -1.738281 1.90625 -1.375 C 1.601562 -1.007812 1.25 -0.4375 0.84375 0.34375 C 0.4375 1.125 0.015625 2.140625 -0.421875 3.390625 C -0.460938 3.515625 -0.550781 3.578125 -0.6875 3.578125 C -0.707031 3.578125 -0.726562 3.578125 -0.75 3.578125 C -0.90625 3.546875 -0.976562 3.445312 -0.96875 3.28125 C -0.957031 3.113281 -0.910156 2.804688 -0.828125 2.359375 C -0.753906 1.921875 -0.648438 1.394531 -0.515625 0.78125 C -0.378906 0.164062 -0.226562 -0.5 -0.0625 -1.21875 C 0.101562 -1.9375 0.269531 -2.664062 0.4375 -3.40625 C 0.613281 -4.144531 0.78125 -4.851562 0.9375 -5.53125 C 1.101562 -6.207031 1.25 -6.8125 1.375 -7.34375 C 1.507812 -7.882812 1.613281 -8.316406 1.6875 -8.640625 C 1.769531 -8.972656 1.8125 -9.144531 1.8125 -9.15625 C 2.039062 -10.070312 2.296875 -10.90625 2.578125 -11.65625 C 2.859375 -12.414062 3.132812 -13.023438 3.40625 -13.484375 C 3.6875 -13.941406 3.929688 -14.191406 4.140625 -14.234375 C 4.304688 -14.265625 4.4375 -14.210938 4.53125 -14.078125 C 4.664062 -13.878906 4.648438 -13.460938 4.484375 -12.828125 C 4.328125 -12.191406 4.03125 -11.390625 3.59375 -10.421875 C 3.15625 -9.453125 2.601562 -8.367188 1.9375 -7.171875 C 1.757812 -6.421875 1.5625 -5.597656 1.34375 -4.703125 C 1.125 -3.816406 0.910156 -2.921875 0.703125 -2.015625 C 0.503906 -1.117188 0.320312 -0.289062 0.15625 0.46875 C 0.425781 -0.101562 0.703125 -0.617188 0.984375 -1.078125 C 1.265625 -1.535156 1.546875 -1.890625 1.828125 -2.140625 C 2.117188 -2.398438 2.390625 -2.515625 2.640625 -2.484375 C 2.859375 -2.453125 3.019531 -2.34375 3.125 -2.15625 C 3.226562 -1.96875 3.296875 -1.765625 3.328125 -1.546875 C 3.367188 -1.335938 3.390625 -1.179688 3.390625 -1.078125 C 3.421875 -0.710938 3.46875 -0.441406 3.53125 -0.265625 C 3.601562 -0.0976562 3.675781 -0.0078125 3.75 0 C 3.769531 0.0078125 3.835938 0 3.953125 -0.03125 C 4.066406 -0.0703125 4.234375 -0.1875 4.453125 -0.375 C 4.679688 -0.5625 4.976562 -0.890625 5.34375 -1.359375 C 5.71875 -1.828125 6.171875 -2.488281 6.703125 -3.34375 C 6.742188 -3.40625 6.800781 -3.445312 6.875 -3.46875 C 6.957031 -3.488281 7.035156 -3.476562 7.109375 -3.4375 Z M 4.03125 -13.390625 C 3.863281 -13.140625 3.632812 -12.695312 3.34375 -12.0625 C 3.0625 -11.425781 2.773438 -10.566406 2.484375 -9.484375 C 2.992188 -10.492188 3.363281 -11.320312 3.59375 -11.96875 C 3.832031 -12.613281 3.976562 -13.085938 4.03125 -13.390625 Z M 4.03125 -13.390625 "/></g></g><g style="fill:#000000;fill-opacity:1;"><g transform="translate(16.841113, 18.145164)"><path style="stroke:none" d="M 5.4375 -3.265625 C 5.5 -3.210938 5.535156 -3.144531 5.546875 -3.0625 C 5.554688 -2.988281 5.535156 -2.921875 5.484375 -2.859375 C 5.222656 -2.535156 4.921875 -2.242188 4.578125 -1.984375 C 4.234375 -1.722656 3.875 -1.53125 3.5 -1.40625 C 3.125 -1.28125 2.765625 -1.253906 2.421875 -1.328125 C 2.273438 -0.984375 2.070312 -0.710938 1.8125 -0.515625 C 1.5625 -0.328125 1.304688 -0.234375 1.046875 -0.234375 C 1.046875 -0.234375 1.039062 -0.234375 1.03125 -0.234375 C 0.757812 -0.242188 0.519531 -0.335938 0.3125 -0.515625 C 0.113281 -0.691406 -0.0234375 -0.9375 -0.109375 -1.25 C -0.191406 -1.59375 -0.203125 -1.921875 -0.140625 -2.234375 C -0.0859375 -2.554688 0.015625 -2.835938 0.171875 -3.078125 C 0.335938 -3.316406 0.519531 -3.5 0.71875 -3.625 C 0.789062 -3.675781 0.867188 -3.6875 0.953125 -3.65625 C 1.046875 -3.875 1.175781 -4.039062 1.34375 -4.15625 C 1.507812 -4.28125 1.679688 -4.332031 1.859375 -4.3125 C 1.972656 -4.289062 2.09375 -4.222656 2.21875 -4.109375 C 2.351562 -3.992188 2.457031 -3.785156 2.53125 -3.484375 C 2.613281 -3.191406 2.640625 -2.757812 2.609375 -2.1875 C 2.597656 -2.09375 2.582031 -1.992188 2.5625 -1.890625 C 2.832031 -1.835938 3.117188 -1.863281 3.421875 -1.96875 C 3.722656 -2.082031 4.007812 -2.25 4.28125 -2.46875 C 4.5625 -2.695312 4.8125 -2.945312 5.03125 -3.21875 C 5.070312 -3.28125 5.132812 -3.316406 5.21875 -3.328125 C 5.300781 -3.335938 5.375 -3.316406 5.4375 -3.265625 Z M 1.046875 -0.828125 C 1.179688 -0.828125 1.328125 -0.882812 1.484375 -1 C 1.640625 -1.125 1.769531 -1.304688 1.875 -1.546875 C 1.507812 -1.742188 1.25 -1.972656 1.09375 -2.234375 C 0.945312 -2.492188 0.867188 -2.753906 0.859375 -3.015625 C 0.648438 -2.816406 0.507812 -2.5625 0.4375 -2.25 C 0.375 -1.9375 0.378906 -1.65625 0.453125 -1.40625 C 0.484375 -1.300781 0.539062 -1.175781 0.625 -1.03125 C 0.71875 -0.894531 0.859375 -0.828125 1.046875 -0.828125 Z M 2.03125 -2.21875 C 2.050781 -2.613281 2.039062 -2.921875 2 -3.140625 C 1.96875 -3.367188 1.925781 -3.519531 1.875 -3.59375 C 1.820312 -3.675781 1.785156 -3.722656 1.765625 -3.734375 C 1.753906 -3.734375 1.75 -3.734375 1.75 -3.734375 C 1.71875 -3.734375 1.671875 -3.703125 1.609375 -3.640625 C 1.554688 -3.585938 1.507812 -3.5 1.46875 -3.375 C 1.40625 -3.1875 1.410156 -2.976562 1.484375 -2.75 C 1.554688 -2.53125 1.738281 -2.320312 2.03125 -2.125 C 2.03125 -2.15625 2.03125 -2.1875 2.03125 -2.21875 Z M 2.03125 -2.21875 "/></g></g><g style="fill:#000000;fill-opacity:1;"><g transform="translate(21.638716, 18.145164)"><path style="stroke:none" d="M 8.453125 -3.359375 C 8.515625 -3.304688 8.546875 -3.238281 8.546875 -3.15625 C 8.554688 -3.082031 8.535156 -3.015625 8.484375 -2.953125 C 7.210938 -1.460938 6.207031 -0.859375 5.46875 -1.140625 C 4.945312 -1.335938 4.664062 -1.972656 4.625 -3.046875 C 4.507812 -2.847656 4.390625 -2.617188 4.265625 -2.359375 C 4.140625 -2.109375 4.035156 -1.898438 3.953125 -1.734375 C 3.898438 -1.585938 3.84375 -1.453125 3.78125 -1.328125 C 3.71875 -1.210938 3.660156 -1.113281 3.609375 -1.03125 C 3.578125 -0.96875 3.523438 -0.878906 3.453125 -0.765625 C 3.378906 -0.648438 3.285156 -0.550781 3.171875 -0.46875 C 3.054688 -0.382812 2.925781 -0.363281 2.78125 -0.40625 C 2.59375 -0.457031 2.453125 -0.585938 2.359375 -0.796875 C 2.273438 -1.015625 2.222656 -1.25 2.203125 -1.5 C 2.179688 -1.757812 2.171875 -1.96875 2.171875 -2.125 C 2.171875 -2.257812 2.171875 -2.382812 2.171875 -2.5 C 2.171875 -2.625 2.175781 -2.734375 2.1875 -2.828125 C 1.84375 -2.328125 1.507812 -1.8125 1.1875 -1.28125 C 0.863281 -0.75 0.523438 -0.132812 0.171875 0.5625 C 0.046875 0.789062 -0.0820312 0.90625 -0.21875 0.90625 C -0.269531 0.90625 -0.316406 0.890625 -0.359375 0.859375 C -0.410156 0.835938 -0.457031 0.800781 -0.5 0.75 C -0.539062 0.707031 -0.5625 0.617188 -0.5625 0.484375 C -0.5625 0.347656 -0.539062 0.140625 -0.5 -0.140625 C -0.457031 -0.421875 -0.367188 -0.8125 -0.234375 -1.3125 C -0.0859375 -1.914062 0.0820312 -2.515625 0.28125 -3.109375 C 0.488281 -3.710938 0.703125 -4.253906 0.921875 -4.734375 C 0.941406 -4.816406 0.988281 -4.875 1.0625 -4.90625 C 1.144531 -4.9375 1.222656 -4.929688 1.296875 -4.890625 C 1.367188 -4.859375 1.414062 -4.804688 1.4375 -4.734375 C 1.46875 -4.660156 1.46875 -4.585938 1.4375 -4.515625 C 1.164062 -3.878906 0.921875 -3.21875 0.703125 -2.53125 C 0.492188 -1.851562 0.328125 -1.257812 0.203125 -0.75 C 0.515625 -1.300781 0.820312 -1.8125 1.125 -2.28125 C 1.425781 -2.757812 1.738281 -3.222656 2.0625 -3.671875 C 2.09375 -3.710938 2.144531 -3.765625 2.21875 -3.828125 C 2.300781 -3.898438 2.40625 -3.921875 2.53125 -3.890625 C 2.664062 -3.835938 2.738281 -3.738281 2.75 -3.59375 C 2.769531 -3.457031 2.773438 -3.222656 2.765625 -2.890625 C 2.765625 -2.785156 2.757812 -2.664062 2.75 -2.53125 C 2.75 -2.40625 2.75 -2.269531 2.75 -2.125 C 2.75 -1.832031 2.765625 -1.585938 2.796875 -1.390625 C 2.835938 -1.203125 2.875 -1.070312 2.90625 -1 C 2.925781 -1.019531 2.953125 -1.054688 2.984375 -1.109375 C 3.023438 -1.160156 3.070312 -1.226562 3.125 -1.3125 C 3.164062 -1.375 3.210938 -1.460938 3.265625 -1.578125 C 3.316406 -1.703125 3.378906 -1.835938 3.453125 -1.984375 C 3.710938 -2.535156 3.921875 -2.960938 4.078125 -3.265625 C 4.242188 -3.566406 4.382812 -3.769531 4.5 -3.875 C 4.625 -3.988281 4.753906 -4.03125 4.890625 -4 C 5.046875 -3.957031 5.132812 -3.859375 5.15625 -3.703125 C 5.1875 -3.554688 5.203125 -3.4375 5.203125 -3.34375 C 5.191406 -2.875 5.226562 -2.492188 5.3125 -2.203125 C 5.394531 -1.910156 5.519531 -1.738281 5.6875 -1.6875 C 5.863281 -1.613281 6.148438 -1.691406 6.546875 -1.921875 C 6.941406 -2.148438 7.445312 -2.617188 8.0625 -3.328125 C 8.101562 -3.390625 8.164062 -3.421875 8.25 -3.421875 C 8.332031 -3.429688 8.398438 -3.410156 8.453125 -3.359375 Z M 8.453125 -3.359375 "/></g></g><g style="fill:#000000;fill-opacity:1;"><g transform="translate(29.449818, 18.145164)"><path style="stroke:none" d="M 6.28125 -3.328125 C 6.351562 -3.296875 6.398438 -3.242188 6.421875 -3.171875 C 6.453125 -3.097656 6.453125 -3.023438 6.421875 -2.953125 C 6.234375 -2.566406 6.023438 -2.175781 5.796875 -1.78125 C 5.566406 -1.394531 5.328125 -1.035156 5.078125 -0.703125 C 4.835938 -0.378906 4.585938 -0.125 4.328125 0.0625 C 4.066406 0.257812 3.8125 0.359375 3.5625 0.359375 C 3.507812 0.359375 3.453125 0.351562 3.390625 0.34375 C 2.722656 0.21875 2.304688 -0.679688 2.140625 -2.359375 C 1.972656 -2.128906 1.773438 -1.867188 1.546875 -1.578125 C 1.328125 -1.296875 1.09375 -1.015625 0.84375 -0.734375 C 0.800781 -0.691406 0.734375 -0.628906 0.640625 -0.546875 C 0.554688 -0.460938 0.453125 -0.394531 0.328125 -0.34375 C 0.210938 -0.289062 0.09375 -0.296875 -0.03125 -0.359375 C -0.269531 -0.453125 -0.382812 -0.710938 -0.375 -1.140625 C -0.375 -1.390625 -0.328125 -1.695312 -0.234375 -2.0625 C -0.140625 -2.4375 -0.00390625 -2.8125 0.171875 -3.1875 C 0.347656 -3.5625 0.550781 -3.894531 0.78125 -4.1875 C 1.019531 -4.476562 1.285156 -4.671875 1.578125 -4.765625 C 1.753906 -4.835938 1.972656 -4.847656 2.234375 -4.796875 C 2.492188 -4.753906 2.765625 -4.570312 3.046875 -4.25 C 3.097656 -4.1875 3.117188 -4.113281 3.109375 -4.03125 C 3.109375 -3.957031 3.078125 -3.894531 3.015625 -3.84375 C 2.953125 -3.789062 2.878906 -3.765625 2.796875 -3.765625 C 2.722656 -3.773438 2.660156 -3.8125 2.609375 -3.875 C 2.367188 -4.15625 2.160156 -4.285156 1.984375 -4.265625 C 1.804688 -4.253906 1.660156 -4.203125 1.546875 -4.109375 C 1.328125 -3.953125 1.125 -3.722656 0.9375 -3.421875 C 0.757812 -3.117188 0.609375 -2.800781 0.484375 -2.46875 C 0.367188 -2.144531 0.285156 -1.835938 0.234375 -1.546875 C 0.191406 -1.265625 0.175781 -1.0625 0.1875 -0.9375 C 0.21875 -0.945312 0.25 -0.96875 0.28125 -1 C 0.320312 -1.03125 0.363281 -1.070312 0.40625 -1.125 C 0.707031 -1.457031 0.984375 -1.785156 1.234375 -2.109375 C 1.484375 -2.429688 1.695312 -2.71875 1.875 -2.96875 C 1.925781 -3.039062 1.972656 -3.109375 2.015625 -3.171875 C 2.054688 -3.234375 2.097656 -3.289062 2.140625 -3.34375 C 2.222656 -3.445312 2.328125 -3.476562 2.453125 -3.4375 C 2.585938 -3.40625 2.660156 -3.320312 2.671875 -3.1875 C 2.703125 -2.53125 2.753906 -2.003906 2.828125 -1.609375 C 2.898438 -1.210938 2.976562 -0.914062 3.0625 -0.71875 C 3.15625 -0.53125 3.242188 -0.398438 3.328125 -0.328125 C 3.410156 -0.253906 3.472656 -0.21875 3.515625 -0.21875 C 3.703125 -0.1875 4.003906 -0.382812 4.421875 -0.8125 C 4.847656 -1.238281 5.335938 -2.03125 5.890625 -3.1875 C 5.929688 -3.269531 5.988281 -3.320312 6.0625 -3.34375 C 6.144531 -3.375 6.21875 -3.367188 6.28125 -3.328125 Z M 6.28125 -3.328125 "/></g></g><g style="fill:#000000;fill-opacity:1;"><g transform="translate(35.02703, 18.145164)"><path style="stroke:none" d="M 6.671875 -3.4375 C 6.734375 -3.382812 6.769531 -3.316406 6.78125 -3.234375 C 6.789062 -3.160156 6.765625 -3.09375 6.703125 -3.03125 C 6.410156 -2.6875 6.085938 -2.3125 5.734375 -1.90625 C 5.390625 -1.5 5.050781 -1.097656 4.71875 -0.703125 C 4.382812 -0.316406 4.097656 0.015625 3.859375 0.296875 C 3.617188 0.585938 3.457031 0.785156 3.375 0.890625 C 3.207031 1.109375 3.039062 1.320312 2.875 1.53125 C 3.007812 2.113281 3.023438 2.660156 2.921875 3.171875 C 2.816406 3.679688 2.640625 4.132812 2.390625 4.53125 C 2.148438 4.9375 1.894531 5.25 1.625 5.46875 C 1.34375 5.707031 1.082031 5.828125 0.84375 5.828125 C 0.6875 5.828125 0.5625 5.78125 0.46875 5.6875 C 0.289062 5.519531 0.226562 5.28125 0.28125 4.96875 C 0.34375 4.65625 0.472656 4.296875 0.671875 3.890625 C 0.867188 3.492188 1.109375 3.082031 1.390625 2.65625 C 1.671875 2.226562 1.957031 1.8125 2.25 1.40625 C 2.195312 1.226562 2.125 1.046875 2.03125 0.859375 C 1.945312 0.671875 1.84375 0.484375 1.71875 0.296875 C 1.3125 -0.316406 0.960938 -0.894531 0.671875 -1.4375 C 0.390625 -1.988281 0.257812 -2.488281 0.28125 -2.9375 C 0.332031 -3.769531 0.703125 -4.390625 1.390625 -4.796875 C 1.671875 -4.972656 1.96875 -5.070312 2.28125 -5.09375 C 2.59375 -5.125 2.878906 -5.082031 3.140625 -4.96875 C 3.203125 -4.925781 3.242188 -4.867188 3.265625 -4.796875 C 3.296875 -4.722656 3.296875 -4.648438 3.265625 -4.578125 C 3.222656 -4.503906 3.164062 -4.453125 3.09375 -4.421875 C 3.019531 -4.398438 2.945312 -4.40625 2.875 -4.4375 C 2.519531 -4.601562 2.125 -4.5625 1.6875 -4.3125 C 1.175781 -4 0.90625 -3.53125 0.875 -2.90625 C 0.851562 -2.539062 0.976562 -2.109375 1.25 -1.609375 C 1.519531 -1.109375 1.835938 -0.582031 2.203125 -0.03125 C 2.390625 0.257812 2.546875 0.554688 2.671875 0.859375 C 2.753906 0.753906 2.835938 0.644531 2.921875 0.53125 C 3.003906 0.425781 3.164062 0.226562 3.40625 -0.0625 C 3.65625 -0.351562 3.941406 -0.691406 4.265625 -1.078125 C 4.597656 -1.472656 4.941406 -1.875 5.296875 -2.28125 C 5.648438 -2.6875 5.972656 -3.0625 6.265625 -3.40625 C 6.316406 -3.46875 6.378906 -3.503906 6.453125 -3.515625 C 6.535156 -3.523438 6.609375 -3.5 6.671875 -3.4375 Z M 1.796875 4.40625 C 1.867188 4.300781 1.953125 4.144531 2.046875 3.9375 C 2.148438 3.726562 2.238281 3.476562 2.3125 3.1875 C 2.394531 2.894531 2.421875 2.566406 2.390625 2.203125 C 1.921875 2.859375 1.570312 3.398438 1.34375 3.828125 C 1.125 4.253906 0.984375 4.578125 0.921875 4.796875 C 0.859375 5.023438 0.835938 5.175781 0.859375 5.25 C 0.921875 5.25 1.039062 5.179688 1.21875 5.046875 C 1.40625 4.921875 1.597656 4.707031 1.796875 4.40625 Z M 1.796875 4.40625 "/></g></g><g style="fill:#000000;fill-opacity:1;"><g transform="translate(41.069012, 18.145164)"><path style="stroke:none" d=""/></g></g><g style="fill:#000000;fill-opacity:1;"><g transform="translate(45.671707, 18.145164)"><path style="stroke:none" d="M 14.84375 3.609375 C 14.914062 3.640625 14.960938 3.691406 14.984375 3.765625 C 15.015625 3.847656 15.015625 3.925781 14.984375 4 C 14.828125 4.3125 14.679688 4.546875 14.546875 4.703125 C 14.410156 4.867188 14.253906 4.921875 14.078125 4.859375 C 13.960938 4.816406 13.875 4.71875 13.8125 4.5625 C 13.757812 4.414062 13.742188 4.144531 13.765625 3.75 C 13.785156 3.363281 13.835938 2.800781 13.921875 2.0625 C 14.015625 1.320312 14.15625 0.351562 14.34375 -0.84375 C 14.476562 -1.769531 14.609375 -2.710938 14.734375 -3.671875 C 14.867188 -4.640625 14.976562 -5.550781 15.0625 -6.40625 C 15.144531 -7.269531 15.179688 -8.003906 15.171875 -8.609375 C 15.171875 -8.835938 15.148438 -9.09375 15.109375 -9.375 C 15.066406 -9.664062 14.988281 -9.921875 14.875 -10.140625 C 14.769531 -10.359375 14.613281 -10.476562 14.40625 -10.5 C 14.164062 -10.53125 13.835938 -10.40625 13.421875 -10.125 C 13.015625 -9.851562 12.523438 -9.375 11.953125 -8.6875 C 11.390625 -8.007812 10.769531 -7.070312 10.09375 -5.875 C 9.601562 -5.03125 9.046875 -3.945312 8.421875 -2.625 C 7.796875 -1.300781 7.132812 0.28125 6.4375 2.125 C 5.75 3.976562 5.0625 6.128906 4.375 8.578125 C 4.363281 8.578125 4.359375 8.582031 4.359375 8.59375 C 4.304688 8.757812 4.242188 8.910156 4.171875 9.046875 C 4.097656 9.191406 4 9.265625 3.875 9.265625 C 3.84375 9.265625 3.804688 9.253906 3.765625 9.234375 C 3.628906 9.203125 3.554688 9.09375 3.546875 8.90625 C 3.546875 8.726562 3.566406 8.457031 3.609375 8.09375 C 3.691406 7.59375 3.820312 6.875 4 5.9375 C 4.3125 4.320312 4.773438 2.113281 5.390625 -0.6875 C 5.597656 -1.644531 5.804688 -2.613281 6.015625 -3.59375 C 6.234375 -4.570312 6.441406 -5.507812 6.640625 -6.40625 C 6.847656 -7.3125 7.039062 -8.148438 7.21875 -8.921875 C 7.394531 -9.703125 7.550781 -10.378906 7.6875 -10.953125 C 7.820312 -11.523438 7.925781 -11.960938 8 -12.265625 C 8.132812 -12.847656 8.203125 -13.289062 8.203125 -13.59375 C 8.203125 -13.90625 8.175781 -14.117188 8.125 -14.234375 C 8.070312 -14.347656 8.03125 -14.414062 8 -14.4375 C 7.894531 -14.5 7.71875 -14.488281 7.46875 -14.40625 C 7.226562 -14.332031 6.90625 -14.132812 6.5 -13.8125 C 6.03125 -13.457031 5.539062 -13.003906 5.03125 -12.453125 C 4.519531 -11.898438 4.019531 -11.289062 3.53125 -10.625 C 3.050781 -9.96875 2.601562 -9.285156 2.1875 -8.578125 C 1.78125 -7.878906 1.429688 -7.191406 1.140625 -6.515625 C 0.859375 -5.835938 0.664062 -5.207031 0.5625 -4.625 C 0.46875 -4.039062 0.488281 -3.539062 0.625 -3.125 C 0.882812 -2.351562 1.597656 -1.957031 2.765625 -1.9375 C 2.835938 -1.9375 2.898438 -1.90625 2.953125 -1.84375 C 3.015625 -1.78125 3.046875 -1.710938 3.046875 -1.640625 C 3.046875 -1.554688 3.015625 -1.484375 2.953125 -1.421875 C 2.898438 -1.367188 2.835938 -1.34375 2.765625 -1.34375 C 2.429688 -1.351562 2.082031 -1.398438 1.71875 -1.484375 C 1.363281 -1.578125 1.035156 -1.734375 0.734375 -1.953125 C 0.429688 -2.179688 0.210938 -2.507812 0.078125 -2.9375 C -0.078125 -3.375 -0.117188 -3.863281 -0.046875 -4.40625 C 0.0234375 -4.945312 0.15625 -5.492188 0.34375 -6.046875 C 0.539062 -6.609375 0.765625 -7.140625 1.015625 -7.640625 C 1.265625 -8.140625 1.5 -8.566406 1.71875 -8.921875 C 2.144531 -9.640625 2.609375 -10.335938 3.109375 -11.015625 C 3.617188 -11.691406 4.132812 -12.3125 4.65625 -12.875 C 5.175781 -13.4375 5.671875 -13.90625 6.140625 -14.28125 C 7.097656 -15.019531 7.816406 -15.234375 8.296875 -14.921875 C 8.828125 -14.585938 8.910156 -13.660156 8.546875 -12.140625 C 8.441406 -11.648438 8.289062 -10.992188 8.09375 -10.171875 C 7.90625 -9.359375 7.691406 -8.429688 7.453125 -7.390625 C 7.222656 -6.347656 6.976562 -5.25 6.71875 -4.09375 C 6.46875 -2.945312 6.210938 -1.789062 5.953125 -0.625 C 5.703125 0.539062 5.460938 1.65625 5.234375 2.71875 C 5.015625 3.789062 4.820312 4.757812 4.65625 5.625 C 5.5 2.945312 6.378906 0.5625 7.296875 -1.53125 C 8.210938 -3.632812 9.113281 -5.40625 10 -6.84375 C 10.882812 -8.289062 11.710938 -9.375 12.484375 -10.09375 C 13.253906 -10.820312 13.914062 -11.148438 14.46875 -11.078125 C 14.65625 -11.054688 14.84375 -10.972656 15.03125 -10.828125 C 15.21875 -10.691406 15.378906 -10.445312 15.515625 -10.09375 C 15.648438 -9.75 15.726562 -9.257812 15.75 -8.625 C 15.757812 -8 15.722656 -7.25 15.640625 -6.375 C 15.554688 -5.507812 15.445312 -4.585938 15.3125 -3.609375 C 15.1875 -2.640625 15.050781 -1.691406 14.90625 -0.765625 C 14.820312 -0.171875 14.734375 0.429688 14.640625 1.046875 C 14.554688 1.660156 14.484375 2.226562 14.421875 2.75 C 14.367188 3.28125 14.34375 3.691406 14.34375 3.984375 C 14.382812 3.910156 14.425781 3.828125 14.46875 3.734375 C 14.5 3.660156 14.550781 3.613281 14.625 3.59375 C 14.707031 3.570312 14.78125 3.578125 14.84375 3.609375 Z M 14.84375 3.609375 "/></g></g><g style="fill:#000000;fill-opacity:1;"><g transform="translate(62.448328, 18.145164)"><path style="stroke:none" d="M 5.0625 -3.34375 C 5.132812 -3.300781 5.175781 -3.238281 5.1875 -3.15625 C 5.195312 -3.082031 5.179688 -3.015625 5.140625 -2.953125 C 4.554688 -2.128906 4.019531 -1.453125 3.53125 -0.921875 C 3.039062 -0.390625 2.550781 0.0507812 2.0625 0.40625 C 1.6875 0.664062 1.316406 0.796875 0.953125 0.796875 C 0.679688 0.796875 0.4375 0.71875 0.21875 0.5625 C 0.0820312 0.46875 -0.0507812 0.289062 -0.1875 0.03125 C -0.320312 -0.21875 -0.394531 -0.582031 -0.40625 -1.0625 C -0.414062 -1.550781 -0.296875 -2.191406 -0.046875 -2.984375 C -0.046875 -2.984375 -0.046875 -2.988281 -0.046875 -3 C 0.253906 -3.957031 0.609375 -4.6875 1.015625 -5.1875 C 1.421875 -5.695312 1.769531 -5.957031 2.0625 -5.96875 C 2.289062 -5.976562 2.4375 -5.878906 2.5 -5.671875 C 2.613281 -5.378906 2.484375 -4.960938 2.109375 -4.421875 C 1.742188 -3.890625 1.203125 -3.328125 0.484375 -2.734375 C 0.265625 -2.035156 0.160156 -1.488281 0.171875 -1.09375 C 0.179688 -0.695312 0.234375 -0.410156 0.328125 -0.234375 C 0.429688 -0.0546875 0.507812 0.0546875 0.5625 0.109375 C 0.863281 0.328125 1.25 0.265625 1.71875 -0.078125 C 2.1875 -0.398438 2.65625 -0.816406 3.125 -1.328125 C 3.59375 -1.835938 4.109375 -2.488281 4.671875 -3.28125 C 4.710938 -3.34375 4.773438 -3.378906 4.859375 -3.390625 C 4.941406 -3.410156 5.007812 -3.394531 5.0625 -3.34375 Z M 1.953125 -5.34375 C 1.835938 -5.269531 1.6875 -5.117188 1.5 -4.890625 C 1.3125 -4.671875 1.117188 -4.347656 0.921875 -3.921875 C 1.273438 -4.265625 1.523438 -4.554688 1.671875 -4.796875 C 1.828125 -5.046875 1.921875 -5.226562 1.953125 -5.34375 Z M 1.953125 -5.34375 "/></g></g><g style="fill:#000000;fill-opacity:1;"><g transform="translate(66.811152, 18.145164)"><path style="stroke:none" d="M 9.1875 -3.375 C 9.238281 -3.320312 9.265625 -3.253906 9.265625 -3.171875 C 9.273438 -3.097656 9.25 -3.03125 9.1875 -2.96875 C 8.71875 -2.488281 8.238281 -2.15625 7.75 -1.96875 C 7.269531 -1.78125 6.828125 -1.742188 6.421875 -1.859375 C 6.242188 -1.921875 6.050781 -2.019531 5.84375 -2.15625 C 5.644531 -2.300781 5.472656 -2.519531 5.328125 -2.8125 C 5.171875 -2.257812 5 -1.726562 4.8125 -1.21875 C 4.601562 -0.664062 4.414062 -0.257812 4.25 0 C 4.082031 0.269531 3.929688 0.445312 3.796875 0.53125 C 3.671875 0.613281 3.5625 0.65625 3.46875 0.65625 C 3.28125 0.65625 3.132812 0.585938 3.03125 0.453125 C 2.9375 0.316406 2.863281 0.171875 2.8125 0.015625 C 2.769531 -0.140625 2.738281 -0.265625 2.71875 -0.359375 C 2.6875 -0.523438 2.660156 -0.722656 2.640625 -0.953125 C 2.296875 -0.429688 2.019531 -0.0390625 1.8125 0.21875 C 1.613281 0.488281 1.4375 0.703125 1.28125 0.859375 C 1.144531 0.984375 1.019531 1.066406 0.90625 1.109375 C 0.800781 1.160156 0.703125 1.1875 0.609375 1.1875 C 0.546875 1.1875 0.484375 1.175781 0.421875 1.15625 C 0.359375 1.132812 0.3125 1.109375 0.28125 1.078125 C 0.03125 0.921875 -0.113281 0.578125 -0.15625 0.046875 C -0.207031 -0.484375 -0.160156 -1.132812 -0.015625 -1.90625 C 0.117188 -2.675781 0.34375 -3.507812 0.65625 -4.40625 C 0.6875 -4.476562 0.738281 -4.53125 0.8125 -4.5625 C 0.882812 -4.601562 0.957031 -4.609375 1.03125 -4.578125 C 1.101562 -4.554688 1.15625 -4.503906 1.1875 -4.421875 C 1.226562 -4.347656 1.234375 -4.28125 1.203125 -4.21875 C 0.835938 -3.21875 0.601562 -2.367188 0.5 -1.671875 C 0.394531 -0.972656 0.363281 -0.429688 0.40625 -0.046875 C 0.445312 0.328125 0.507812 0.539062 0.59375 0.59375 C 0.632812 0.625 0.734375 0.570312 0.890625 0.4375 C 1.003906 0.320312 1.132812 0.175781 1.28125 0 C 1.425781 -0.1875 1.601562 -0.441406 1.8125 -0.765625 C 2.03125 -1.085938 2.304688 -1.507812 2.640625 -2.03125 C 2.710938 -2.144531 2.816406 -2.179688 2.953125 -2.140625 C 3.097656 -2.097656 3.171875 -2.003906 3.171875 -1.859375 C 3.171875 -1.679688 3.175781 -1.460938 3.1875 -1.203125 C 3.207031 -0.941406 3.238281 -0.695312 3.28125 -0.46875 C 3.320312 -0.289062 3.359375 -0.160156 3.390625 -0.078125 C 3.421875 -0.00390625 3.445312 0.046875 3.46875 0.078125 C 3.5625 0.015625 3.679688 -0.15625 3.828125 -0.4375 C 3.972656 -0.71875 4.125 -1.054688 4.28125 -1.453125 C 4.4375 -1.859375 4.578125 -2.28125 4.703125 -2.71875 C 4.828125 -3.15625 4.914062 -3.5625 4.96875 -3.9375 C 5 -4.101562 5.09375 -4.1875 5.25 -4.1875 C 5.40625 -4.195312 5.5 -4.117188 5.53125 -3.953125 C 5.707031 -3.085938 6.054688 -2.578125 6.578125 -2.421875 C 6.878906 -2.328125 7.222656 -2.363281 7.609375 -2.53125 C 8.003906 -2.707031 8.398438 -2.988281 8.796875 -3.375 C 8.835938 -3.4375 8.898438 -3.46875 8.984375 -3.46875 C 9.066406 -3.46875 9.132812 -3.4375 9.1875 -3.375 Z M 9.1875 -3.375 "/></g></g><g style="fill:#000000;fill-opacity:1;"><g transform="translate(75.341892, 18.145164)"><path style="stroke:none" d="M 8.453125 -3.359375 C 8.515625 -3.304688 8.546875 -3.238281 8.546875 -3.15625 C 8.554688 -3.082031 8.535156 -3.015625 8.484375 -2.953125 C 7.210938 -1.460938 6.207031 -0.859375 5.46875 -1.140625 C 4.945312 -1.335938 4.664062 -1.972656 4.625 -3.046875 C 4.507812 -2.847656 4.390625 -2.617188 4.265625 -2.359375 C 4.140625 -2.109375 4.035156 -1.898438 3.953125 -1.734375 C 3.898438 -1.585938 3.84375 -1.453125 3.78125 -1.328125 C 3.71875 -1.210938 3.660156 -1.113281 3.609375 -1.03125 C 3.578125 -0.96875 3.523438 -0.878906 3.453125 -0.765625 C 3.378906 -0.648438 3.285156 -0.550781 3.171875 -0.46875 C 3.054688 -0.382812 2.925781 -0.363281 2.78125 -0.40625 C 2.59375 -0.457031 2.453125 -0.585938 2.359375 -0.796875 C 2.273438 -1.015625 2.222656 -1.25 2.203125 -1.5 C 2.179688 -1.757812 2.171875 -1.96875 2.171875 -2.125 C 2.171875 -2.257812 2.171875 -2.382812 2.171875 -2.5 C 2.171875 -2.625 2.175781 -2.734375 2.1875 -2.828125 C 1.84375 -2.328125 1.507812 -1.8125 1.1875 -1.28125 C 0.863281 -0.75 0.523438 -0.132812 0.171875 0.5625 C 0.046875 0.789062 -0.0820312 0.90625 -0.21875 0.90625 C -0.269531 0.90625 -0.316406 0.890625 -0.359375 0.859375 C -0.410156 0.835938 -0.457031 0.800781 -0.5 0.75 C -0.539062 0.707031 -0.5625 0.617188 -0.5625 0.484375 C -0.5625 0.347656 -0.539062 0.140625 -0.5 -0.140625 C -0.457031 -0.421875 -0.367188 -0.8125 -0.234375 -1.3125 C -0.0859375 -1.914062 0.0820312 -2.515625 0.28125 -3.109375 C 0.488281 -3.710938 0.703125 -4.253906 0.921875 -4.734375 C 0.941406 -4.816406 0.988281 -4.875 1.0625 -4.90625 C 1.144531 -4.9375 1.222656 -4.929688 1.296875 -4.890625 C 1.367188 -4.859375 1.414062 -4.804688 1.4375 -4.734375 C 1.46875 -4.660156 1.46875 -4.585938 1.4375 -4.515625 C 1.164062 -3.878906 0.921875 -3.21875 0.703125 -2.53125 C 0.492188 -1.851562 0.328125 -1.257812 0.203125 -0.75 C 0.515625 -1.300781 0.820312 -1.8125 1.125 -2.28125 C 1.425781 -2.757812 1.738281 -3.222656 2.0625 -3.671875 C 2.09375 -3.710938 2.144531 -3.765625 2.21875 -3.828125 C 2.300781 -3.898438 2.40625 -3.921875 2.53125 -3.890625 C 2.664062 -3.835938 2.738281 -3.738281 2.75 -3.59375 C 2.769531 -3.457031 2.773438 -3.222656 2.765625 -2.890625 C 2.765625 -2.785156 2.757812 -2.664062 2.75 -2.53125 C 2.75 -2.40625 2.75 -2.269531 2.75 -2.125 C 2.75 -1.832031 2.765625 -1.585938 2.796875 -1.390625 C 2.835938 -1.203125 2.875 -1.070312 2.90625 -1 C 2.925781 -1.019531 2.953125 -1.054688 2.984375 -1.109375 C 3.023438 -1.160156 3.070312 -1.226562 3.125 -1.3125 C 3.164062 -1.375 3.210938 -1.460938 3.265625 -1.578125 C 3.316406 -1.703125 3.378906 -1.835938 3.453125 -1.984375 C 3.710938 -2.535156 3.921875 -2.960938 4.078125 -3.265625 C 4.242188 -3.566406 4.382812 -3.769531 4.5 -3.875 C 4.625 -3.988281 4.753906 -4.03125 4.890625 -4 C 5.046875 -3.957031 5.132812 -3.859375 5.15625 -3.703125 C 5.1875 -3.554688 5.203125 -3.4375 5.203125 -3.34375 C 5.191406 -2.875 5.226562 -2.492188 5.3125 -2.203125 C 5.394531 -1.910156 5.519531 -1.738281 5.6875 -1.6875 C 5.863281 -1.613281 6.148438 -1.691406 6.546875 -1.921875 C 6.941406 -2.148438 7.445312 -2.617188 8.0625 -3.328125 C 8.101562 -3.390625 8.164062 -3.421875 8.25 -3.421875 C 8.332031 -3.429688 8.398438 -3.410156 8.453125 -3.359375 Z M 8.453125 -3.359375 "/></g></g><g style="fill:#000000;fill-opacity:1;"><g transform="translate(83.152994, 18.145164)"><path style="stroke:none" d="M 6.28125 -3.328125 C 6.351562 -3.296875 6.398438 -3.242188 6.421875 -3.171875 C 6.453125 -3.097656 6.453125 -3.023438 6.421875 -2.953125 C 6.234375 -2.566406 6.023438 -2.175781 5.796875 -1.78125 C 5.566406 -1.394531 5.328125 -1.035156 5.078125 -0.703125 C 4.835938 -0.378906 4.585938 -0.125 4.328125 0.0625 C 4.066406 0.257812 3.8125 0.359375 3.5625 0.359375 C 3.507812 0.359375 3.453125 0.351562 3.390625 0.34375 C 2.722656 0.21875 2.304688 -0.679688 2.140625 -2.359375 C 1.972656 -2.128906 1.773438 -1.867188 1.546875 -1.578125 C 1.328125 -1.296875 1.09375 -1.015625 0.84375 -0.734375 C 0.800781 -0.691406 0.734375 -0.628906 0.640625 -0.546875 C 0.554688 -0.460938 0.453125 -0.394531 0.328125 -0.34375 C 0.210938 -0.289062 0.09375 -0.296875 -0.03125 -0.359375 C -0.269531 -0.453125 -0.382812 -0.710938 -0.375 -1.140625 C -0.375 -1.390625 -0.328125 -1.695312 -0.234375 -2.0625 C -0.140625 -2.4375 -0.00390625 -2.8125 0.171875 -3.1875 C 0.347656 -3.5625 0.550781 -3.894531 0.78125 -4.1875 C 1.019531 -4.476562 1.285156 -4.671875 1.578125 -4.765625 C 1.753906 -4.835938 1.972656 -4.847656 2.234375 -4.796875 C 2.492188 -4.753906 2.765625 -4.570312 3.046875 -4.25 C 3.097656 -4.1875 3.117188 -4.113281 3.109375 -4.03125 C 3.109375 -3.957031 3.078125 -3.894531 3.015625 -3.84375 C 2.953125 -3.789062 2.878906 -3.765625 2.796875 -3.765625 C 2.722656 -3.773438 2.660156 -3.8125 2.609375 -3.875 C 2.367188 -4.15625 2.160156 -4.285156 1.984375 -4.265625 C 1.804688 -4.253906 1.660156 -4.203125 1.546875 -4.109375 C 1.328125 -3.953125 1.125 -3.722656 0.9375 -3.421875 C 0.757812 -3.117188 0.609375 -2.800781 0.484375 -2.46875 C 0.367188 -2.144531 0.285156 -1.835938 0.234375 -1.546875 C 0.191406 -1.265625 0.175781 -1.0625 0.1875 -0.9375 C 0.21875 -0.945312 0.25 -0.96875 0.28125 -1 C 0.320312 -1.03125 0.363281 -1.070312 0.40625 -1.125 C 0.707031 -1.457031 0.984375 -1.785156 1.234375 -2.109375 C 1.484375 -2.429688 1.695312 -2.71875 1.875 -2.96875 C 1.925781 -3.039062 1.972656 -3.109375 2.015625 -3.171875 C 2.054688 -3.234375 2.097656 -3.289062 2.140625 -3.34375 C 2.222656 -3.445312 2.328125 -3.476562 2.453125 -3.4375 C 2.585938 -3.40625 2.660156 -3.320312 2.671875 -3.1875 C 2.703125 -2.53125 2.753906 -2.003906 2.828125 -1.609375 C 2.898438 -1.210938 2.976562 -0.914062 3.0625 -0.71875 C 3.15625 -0.53125 3.242188 -0.398438 3.328125 -0.328125 C 3.410156 -0.253906 3.472656 -0.21875 3.515625 -0.21875 C 3.703125 -0.1875 4.003906 -0.382812 4.421875 -0.8125 C 4.847656 -1.238281 5.335938 -2.03125 5.890625 -3.1875 C 5.929688 -3.269531 5.988281 -3.320312 6.0625 -3.34375 C 6.144531 -3.375 6.21875 -3.367188 6.28125 -3.328125 Z M 6.28125 -3.328125 "/></g></g><g clip-rule="nonzero" clip-path="url(#70699900f8)"><g style="fill:#000000;fill-opacity:1;"><g transform="translate(88.910151, 18.145164)"><path style="stroke:none" d="M 6.046875 -3.34375 C 6.117188 -3.300781 6.160156 -3.242188 6.171875 -3.171875 C 6.191406 -3.097656 6.1875 -3.023438 6.15625 -2.953125 C 5.675781 -2.117188 5.25 -1.476562 4.875 -1.03125 C 4.5 -0.59375 4.117188 -0.398438 3.734375 -0.453125 C 3.234375 -0.515625 2.835938 -1.050781 2.546875 -2.0625 C 2.453125 -2.394531 2.363281 -2.632812 2.28125 -2.78125 C 2.207031 -2.925781 2.148438 -3.015625 2.109375 -3.046875 C 2.066406 -3.085938 2.035156 -3.109375 2.015625 -3.109375 C 1.984375 -3.117188 1.921875 -3.085938 1.828125 -3.015625 C 1.734375 -2.941406 1.601562 -2.785156 1.4375 -2.546875 C 1.269531 -2.304688 1.0625 -1.929688 0.8125 -1.421875 C 0.5625 -0.921875 0.253906 -0.234375 -0.109375 0.640625 C -0.160156 0.765625 -0.242188 0.828125 -0.359375 0.828125 C -0.390625 0.828125 -0.414062 0.820312 -0.4375 0.8125 C -0.601562 0.769531 -0.675781 0.664062 -0.65625 0.5 C -0.601562 0.0820312 -0.507812 -0.390625 -0.375 -0.921875 C -0.25 -1.460938 -0.113281 -2.015625 0.03125 -2.578125 C 0.1875 -3.140625 0.332031 -3.640625 0.46875 -4.078125 C 0.5 -4.179688 0.523438 -4.273438 0.546875 -4.359375 C 0.566406 -4.441406 0.585938 -4.523438 0.609375 -4.609375 C 0.640625 -4.679688 0.691406 -4.734375 0.765625 -4.765625 C 0.835938 -4.804688 0.90625 -4.816406 0.96875 -4.796875 C 1.050781 -4.773438 1.113281 -4.726562 1.15625 -4.65625 C 1.195312 -4.59375 1.203125 -4.519531 1.171875 -4.4375 C 1.148438 -4.351562 1.125 -4.269531 1.09375 -4.1875 C 1.070312 -4.101562 1.046875 -4.015625 1.015625 -3.921875 C 0.953125 -3.660156 0.875 -3.375 0.78125 -3.0625 C 0.6875 -2.75 0.597656 -2.429688 0.515625 -2.109375 C 0.847656 -2.753906 1.132812 -3.179688 1.375 -3.390625 C 1.613281 -3.597656 1.835938 -3.695312 2.046875 -3.6875 C 2.316406 -3.664062 2.53125 -3.507812 2.6875 -3.21875 C 2.851562 -2.9375 2.992188 -2.601562 3.109375 -2.21875 C 3.253906 -1.695312 3.390625 -1.363281 3.515625 -1.21875 C 3.648438 -1.082031 3.75 -1.015625 3.8125 -1.015625 C 3.9375 -0.992188 4.085938 -1.066406 4.265625 -1.234375 C 4.441406 -1.398438 4.617188 -1.609375 4.796875 -1.859375 C 4.972656 -2.117188 5.132812 -2.375 5.28125 -2.625 C 5.4375 -2.875 5.554688 -3.078125 5.640625 -3.234375 C 5.679688 -3.304688 5.738281 -3.351562 5.8125 -3.375 C 5.894531 -3.394531 5.972656 -3.382812 6.046875 -3.34375 Z M 6.046875 -3.34375 "/></g></g></g></g></svg>